<svg width="1570" height="1623" viewBox="0 0 1570 1623" fill="none" xmlns="http://www.w3.org/2000/svg">
<path fill-rule="evenodd" clip-rule="evenodd" d="M1554.69 497.826L1560.37 496.277L1554.32 494.773L1554.21 493.851L1552.49 494.319L1226.64 413.315L1226.47 413.366C1210.99 412.222 897.559 389.656 662.41 423.294L540.234 418.892L541.159 414.221L536.996 418.775L536.225 418.747L536.076 419.499L249.885 577.365L248.237 577.465L248.437 579.153L138.748 964.51L136.117 966.075L138.059 966.928L137.168 970.06L139.513 968.664L234.551 1188.67L416.398 1291.64L414.284 1292.8L419.457 1293.53L420.415 1294.64L421.219 1293.78L825.627 1351.02L1038.61 1343.41L1038.36 1345.56L1041.25 1343.5L1042.55 1343.84L1042.72 1342.44C1043.09 1342.17 1043.6 1341.79 1044.25 1341.3C1045.74 1340.18 1047.97 1338.47 1050.97 1336.1C1056.96 1331.36 1065.99 1323.99 1078.2 1313.42C1101.89 1292.93 1137.53 1260.42 1186.05 1211.85L1186.04 1211.86L1190.29 1207.59L1190.9 1207.31L1190.98 1206.9C1240.39 1157.16 1302.71 1091.25 1378.89 1005.07L1379.27 1005.49L1380.32 1003.59L1382.07 1002.69L1381.29 1001.82L1531.06 729.514L1531.03 729.272L1566.45 601.506L1567.04 601.375L1566.87 599.986L1567.65 597.183L1566.57 597.424L1554.69 497.826ZM1512.44 616.398L1526.96 728.738L1378.48 998.712L1298.39 910.221L1512.44 616.398ZM1511.57 609.675L1512.6 609.444L1515.09 606.029L1515.45 608.809L1562.68 598.288L1550.82 498.88L1439.11 529.326L1091.66 861.65L1294.74 908.072L1295.33 906.839L1295.68 907.221L1511.7 610.684L1511.57 609.675ZM1296.36 913.874L1215.02 1083.88L1375.67 1001.52L1296.36 913.874ZM1206.92 1091.63L1001.64 1158.13L1050.46 1266.34L1187.38 1204.56L1208.02 1091.92L1206.38 1092.76L1206.92 1091.63ZM996.293 1158.79L995.934 1159.98L997.846 1159.36L1046.57 1267.33L859.555 1291.17L698.923 1144.82L996.293 1158.79ZM997.762 1153.91L1085.13 864.219L1083.61 863.872L1084.35 863.168L747.261 671.431L778.588 1021.29L780.186 1021.54L779.587 1022.4L997.762 1153.91ZM1562.07 602.483L1529.72 719.16L1515.96 612.754L1562.07 602.483ZM1431.09 531.51L1087.33 860.311L751.702 669.401L976.7 655.333L1431.09 531.51ZM291.452 874.509L740.619 667.654L738.267 666.316L738.276 666.315L515.49 539.343L291.452 874.509ZM992.554 486.983L751.577 665.397L983.276 649.404L1544.66 496.453L1226.73 417.419L992.554 486.983ZM1292.99 911.734L1089 865.104L1001.91 1153.88L1209.28 1086.7L1292.99 911.734ZM777.32 1025.66L991.196 1154.58L697.202 1140.77L777.32 1025.66ZM743.679 675.833L774.555 1020.65L607.134 994.298L743.679 675.833ZM744.81 665.481L518.64 536.476L639.908 448.641L986.469 486.559L744.81 665.481ZM1052.09 1269.95L1180.1 1212.19C1133.25 1258.96 1098.71 1290.44 1075.61 1310.43C1063.44 1320.96 1054.45 1328.29 1048.51 1332.99C1046.42 1334.64 1044.71 1335.97 1043.37 1336.99L1051.26 1270.73L1052.38 1270.58L1052.09 1269.95ZM690.984 1140.48L690.087 1136.77L693.194 1139.6L773.322 1024.47L605.667 998.077L557.249 1145.53L688.609 1140.78L688.135 1140.35L690.984 1140.48ZM696.971 1148.4L733.271 1298.65L854.091 1291.55L696.971 1148.4ZM858.181 1295.28L734.216 1302.57L734.239 1302.66L731.862 1302.7L731.852 1302.71L731.814 1302.71L730.2 1302.8L730.184 1302.74L539.534 1306.55L825.835 1347.05L1027.42 1339.84L858.766 1295.27L858.241 1295.33L858.181 1295.28ZM1039.16 1338.85L1047.21 1271.24L869.223 1293.94L1039.16 1338.85ZM692.21 1145.56L729.231 1298.8L514.998 1303.08L426.66 1290.55L692.21 1145.56ZM1370.43 1008.66C1298.85 1089.42 1239.73 1152.04 1192.25 1200L1212.47 1089.64L1370.43 1008.66ZM685.216 1144.87L430.233 1284.09L554.533 1150.46L555.358 1151.29L555.932 1149.54L685.216 1144.87ZM1215.63 416.583L991.629 483.054L638.821 444.537L517.792 532.148L539.454 422.827L662.621 427.265L662.796 427.24C877.084 396.555 1156.81 412.676 1215.63 416.583ZM511.216 536.907L513.051 535.579L534.518 427.356L403.03 571.175L293.708 864.004L512.028 537.37L511.216 536.907ZM601.702 997.452L553.603 1143.93L293.657 884.195L601.666 996.999L601.487 997.418L601.702 997.452ZM741.101 671.793L291.092 879.037L603.229 993.353L741.101 671.793ZM280.715 879.454L283.767 878.048L249.645 589.377L143.706 961.56L281.313 879.673L280.715 879.454ZM285.593 881.736L144.756 965.543L545.623 1141.56L285.593 881.736ZM286.91 870.888L398.388 572.284L252.663 581.164L286.91 870.888ZM400.388 568.195L528.254 428.337L259.103 576.804L400.388 568.195ZM147.615 971.124L420.532 1288.7L551.133 1148.3L147.615 971.124ZM411.578 1284.36L147.414 976.965L237.66 1185.88L411.578 1284.36Z" fill="#101010"/>
</svg>
