<svg width="161" height="129" viewBox="0 0 161 129" fill="none" xmlns="http://www.w3.org/2000/svg">
<path d="M41.0483 95.8124L69.7023 108.42L54.3009 107.356L41.0483 95.8124Z" fill="#9D1C51"/>
<path d="M73.9802 94.7418L41.0483 95.8124L69.7024 108.42L73.9802 94.7418Z" fill="#B51F47"/>
<path d="M82.9615 90.0406L73.9801 94.7418L69.7023 108.42L82.9615 90.0406Z" fill="#A71E21"/>
<path d="M47.8875 85.5522L41.0483 95.8124L73.9802 94.7418L47.8875 85.5522Z" fill="#CF1487"/>
<path d="M36.1252 66.9603L45.752 61.6141L47.8876 85.5523L36.1252 66.9603Z" fill="#155F8D"/>
<path d="M41.0484 95.8124L47.8876 85.5523L36.1252 66.9603L41.0484 95.8124Z" fill="#137095"/>
<path d="M45.752 61.6142L50.0298 47.5106L36.1252 66.9604L45.752 61.6142Z" fill="#156D92"/>
<path d="M52.1654 55.8491L47.8875 85.5523L45.752 61.6142L50.0298 47.5106L52.1654 55.8491Z" fill="#1390A8"/>
<path d="M71.4121 57.2321L52.1653 55.8424L47.8875 85.5523L71.4121 57.2321Z" fill="#17ABA7"/>
<path d="M73.9801 94.7418L72.4832 83.205L47.8875 85.5522L73.9801 94.7418Z" fill="#EB0B75"/>
<path d="M71.4121 57.2321L72.4832 83.2049L47.8875 85.5522L71.4121 57.2321Z" fill="#8E9991"/>
<path d="M84.6713 79.5677L72.4832 83.2049L71.4121 57.2321L84.6713 79.5677Z" fill="#F7A81A"/>
<path d="M73.9802 94.7419L72.4833 83.205L84.6714 79.5677L82.9616 90.0407L73.9802 94.7419Z" fill="#F25B24"/>
<path d="M95.1364 25.5007L81.8905 37.4698L57.5143 46.0144L52.1654 55.8556L50.0298 47.5105L58.3659 43.8866C72.8891 34.1983 94.4711 25.7601 95.1364 25.5007Z" fill="#3BB6E8"/>
<path d="M81.8904 37.4633L71.4121 57.2322L52.1653 55.8491L57.5142 46.0145L81.8904 37.4633Z" fill="#26ABE3"/>
<path d="M95.1363 25.5007L119.1 20.5801L86.1682 49.0066L71.4121 57.232L81.8904 37.4631L95.1363 25.5007Z" fill="#ADD13E"/>
<path d="M82.9615 90.0406L90.446 99.2302L76.3286 106.332L69.7023 108.42L82.9615 90.0406Z" fill="#D32033"/>
<path d="M112.041 92.1818L98.5692 94.7418L90.446 99.2302L76.3286 106.332L98.1434 99.4496L112.041 92.1818Z" fill="#8C1F1B"/>
<path d="M82.9615 90.0406L98.5692 94.7418L90.4461 99.2302L82.9615 90.0406Z" fill="#F01B3D"/>
<path d="M110.332 87.1548L98.5693 94.7418L112.041 92.1818L110.332 87.1548Z" fill="#CA2024"/>
<path d="M84.6713 79.5677L103.486 81.3831L82.9615 90.0407L84.6713 79.5677Z" fill="#F39D1A"/>
<path d="M123.591 59.2668L115.248 55.849V70.2185L123.591 59.2668Z" fill="#FECC0D"/>
<path d="M117.53 78.6235C114.064 88.5246 112.041 92.1818 112.041 92.1818L110.332 87.1548L117.53 78.6235Z" fill="#E66525"/>
<path d="M123.591 59.2668C121.269 67.4191 119.226 73.7694 117.53 78.6235L115.248 70.2185L123.591 59.2668Z" fill="#F68920"/>
<path d="M115.248 70.2185L103.486 81.383L110.332 87.1548L117.53 78.6235L115.248 70.2185Z" fill="#FAA71B"/>
<path d="M82.9615 90.0407L103.486 81.3831L110.332 87.1548L98.5692 94.7419L82.9615 90.0407Z" fill="#ED451F"/>
<path d="M71.4121 57.2321L100.066 59.2668L103.486 81.383L84.6713 79.5677L71.4121 57.2321Z" fill="#FDCC0D"/>
<path d="M119.1 20.5801L112.56 26.2255L100.066 59.2668L115.248 55.8489L120.165 29.3441L123.165 26.9902L119.1 20.5801Z" fill="#F8EF25"/>
<path d="M71.4121 57.2321L86.5807 48.6477L112.56 26.2256L100.066 59.2669L71.4121 57.2321Z" fill="#E1E420"/>
<path d="M115.248 55.849L123.591 59.2668L124.875 36.612L120.165 29.3441L115.248 55.849Z" fill="#EDE813"/>
<path d="M123.165 26.9902L120.165 29.3442L124.875 36.612L123.165 26.9902Z" fill="#F5F149"/>
<path d="M100.066 59.2668L115.248 55.849V70.2185L103.486 81.383L100.066 59.2668Z" fill="#FBD906"/>
</svg>
