<svg width="473" height="571" viewBox="0 0 473 571" fill="none" xmlns="http://www.w3.org/2000/svg">
<g filter="url(#filter0_d)">
<path d="M187.829 275.831C191.148 274.88 193.067 271.419 192.116 268.1C191.165 264.781 187.703 262.862 184.385 263.813C181.066 264.764 179.147 268.226 180.098 271.544C181.049 274.863 184.51 276.782 187.829 275.831Z" fill="#3BB6E8"/>
<path d="M284.07 367.09C287.389 366.139 289.308 362.677 288.357 359.359C287.406 356.04 283.944 354.121 280.626 355.072C277.307 356.023 275.388 359.484 276.339 362.803C277.29 366.122 280.751 368.041 284.07 367.09Z" fill="#3BB6E8"/>
<path d="M229.61 402.686C232.929 401.735 234.848 398.273 233.897 394.955C232.946 391.636 229.484 389.717 226.166 390.668C222.847 391.619 220.928 395.081 221.879 398.399C222.83 401.718 226.291 403.637 229.61 402.686Z" fill="#3BB6E8"/>
<path d="M112.634 447.203C115.953 446.252 117.872 442.79 116.921 439.472C115.97 436.153 112.508 434.234 109.19 435.185C105.871 436.136 103.952 439.598 104.903 442.916C105.854 446.235 109.315 448.154 112.634 447.203Z" fill="#3BB6E8"/>
<path d="M93.2203 295.992C96.5391 295.041 98.4584 291.579 97.5072 288.261C96.556 284.942 93.0945 283.023 89.7758 283.974C86.457 284.925 84.5377 288.387 85.4889 291.705C86.4401 295.024 89.9015 296.943 93.2203 295.992Z" fill="#3BB6E8"/>
<path d="M67.6373 333.892C70.9561 332.941 72.8754 329.479 71.9242 326.161C70.973 322.842 67.5115 320.923 64.1927 321.874C60.874 322.825 58.9547 326.286 59.9059 329.605C60.857 332.924 64.3185 334.843 67.6373 333.892Z" fill="#3BB6E8"/>
<path d="M29.7493 373.788C33.0681 372.837 34.9874 369.375 34.0362 366.057C33.085 362.738 29.6236 360.819 26.3048 361.77C22.986 362.721 21.0667 366.182 22.0179 369.501C22.9691 372.82 26.4306 374.739 29.7493 373.788Z" fill="#3BB6E8"/>
<path d="M70.8353 258.908C74.154 257.957 76.0734 254.496 75.1222 251.177C74.171 247.858 70.7095 245.939 67.3907 246.89C64.072 247.841 62.1527 251.303 63.1039 254.621C64.055 257.94 67.5165 259.859 70.8353 258.908Z" fill="#3BB6E8"/>
<path d="M103.421 241.339C106.74 240.388 108.659 236.926 107.708 233.608C106.757 230.289 103.295 228.37 99.9767 229.321C96.6579 230.272 94.7386 233.733 95.6898 237.052C96.641 240.371 100.102 242.29 103.421 241.339Z" fill="#3BB6E8"/>
<path d="M209.234 167.512C212.553 166.561 214.472 163.1 213.521 159.781C212.57 156.462 209.108 154.543 205.79 155.494C202.471 156.445 200.552 159.907 201.503 163.225C202.454 166.544 205.915 168.463 209.234 167.512Z" fill="#3BB6E8"/>
<path d="M256.208 89.3873C259.527 88.4362 261.446 84.9747 260.495 81.6559C259.544 78.3372 256.083 76.4179 252.764 77.369C249.445 78.3202 247.526 81.7817 248.477 85.1005C249.428 88.4192 252.89 90.3385 256.208 89.3873Z" fill="#3BB6E8"/>
<path d="M369.64 29.8364C372.959 28.8853 374.878 25.4238 373.927 22.105C372.976 18.7863 369.514 16.867 366.196 17.8181C362.877 18.7693 360.958 22.2308 361.909 25.5496C362.86 28.8683 366.321 30.7876 369.64 29.8364Z" fill="#3BB6E8"/>
<path d="M342.195 69.4456C345.514 68.4944 347.433 65.0329 346.482 61.7142C345.531 58.3954 342.069 56.4761 338.751 57.4273C335.432 58.3785 333.513 61.8399 334.464 65.1587C335.415 68.4775 338.876 70.3968 342.195 69.4456Z" fill="#3BB6E8"/>
<path d="M330.387 245.654C333.706 244.703 335.625 241.242 334.674 237.923C333.723 234.604 330.262 232.685 326.943 233.636C323.624 234.587 321.705 238.049 322.656 241.367C323.607 244.686 327.069 246.605 330.387 245.654Z" fill="#3BB6E8"/>
<path d="M400.68 207.872C403.999 206.921 405.918 203.46 404.967 200.141C404.016 196.822 400.554 194.903 397.236 195.854C393.917 196.805 391.998 200.267 392.949 203.585C393.9 206.904 397.361 208.823 400.68 207.872Z" fill="#3BB6E8"/>
<path d="M388.614 71.4254C391.933 70.4742 393.852 67.0128 392.901 63.694C391.95 60.3752 388.488 58.4559 385.17 59.4071C381.851 60.3583 379.932 63.8198 380.883 67.1385C381.834 70.4573 385.295 72.3766 388.614 71.4254Z" fill="#3BB6E8"/>
<path d="M400.71 56.2017C404.029 55.2505 405.948 51.789 404.997 48.4703C404.046 45.1515 400.585 43.2322 397.266 44.1834C393.947 45.1346 392.028 48.596 392.979 51.9148C393.93 55.2336 397.392 57.1529 400.71 56.2017Z" fill="#3BB6E8"/>
<path d="M418.749 94.5316C422.068 93.5804 423.987 90.1189 423.036 86.8002C422.085 83.4814 418.623 81.5621 415.305 82.5133C411.986 83.4644 410.067 86.9259 411.018 90.2447C411.969 93.5635 415.43 95.4828 418.749 94.5316Z" fill="#3BB6E8"/>
<path d="M446.946 213.423C450.265 212.472 452.184 209.011 451.233 205.692C450.282 202.373 446.82 200.454 443.502 201.405C440.183 202.356 438.264 205.818 439.215 209.136C440.166 212.455 443.627 214.374 446.946 213.423Z" fill="#3BB6E8"/>
<path d="M420.608 277.404C423.927 276.453 425.846 272.992 424.895 269.673C423.944 266.354 420.482 264.435 417.164 265.386C413.845 266.337 411.926 269.799 412.877 273.117C413.828 276.436 417.289 278.355 420.608 277.404Z" fill="#3BB6E8"/>
<path d="M442.993 314.488C446.312 313.537 448.231 310.076 447.28 306.757C446.329 303.438 442.867 301.519 439.549 302.47C436.23 303.421 434.311 306.883 435.262 310.201C436.213 313.52 439.674 315.439 442.993 314.488Z" fill="#3BB6E8"/>
<path d="M420.371 366.823C423.69 365.872 425.609 362.41 424.658 359.092C423.707 355.773 420.245 353.854 416.927 354.805C413.608 355.756 411.689 359.217 412.64 362.536C413.591 365.855 417.052 367.774 420.371 366.823Z" fill="#3BB6E8"/>
<path d="M373.689 421.351C377.008 420.4 378.927 416.939 377.976 413.62C377.025 410.301 373.564 408.382 370.245 409.333C366.926 410.284 365.007 413.746 365.958 417.064C366.909 420.383 370.371 422.302 373.689 421.351Z" fill="#3BB6E8"/>
<path d="M378.285 347.142C381.604 346.191 383.523 342.729 382.572 339.411C381.621 336.092 378.159 334.173 374.841 335.124C371.522 336.075 369.603 339.536 370.554 342.855C371.505 346.174 374.966 348.093 378.285 347.142Z" fill="#3BB6E8"/>
<path d="M291.411 421.419C294.73 420.468 296.649 417.006 295.698 413.688C294.747 410.369 291.285 408.45 287.967 409.401C284.648 410.352 282.729 413.814 283.68 417.132C284.631 420.451 288.092 422.37 291.411 421.419Z" fill="#3BB6E8"/>
<path d="M340.182 452.116C343.501 451.165 345.42 447.703 344.469 444.385C343.518 441.066 340.056 439.147 336.738 440.098C333.419 441.049 331.5 444.51 332.451 447.829C333.402 451.148 336.863 453.067 340.182 452.116Z" fill="#3BB6E8"/>
<path d="M252.009 456.225C255.328 455.274 257.247 451.812 256.296 448.494C255.345 445.175 251.883 443.256 248.565 444.207C245.246 445.158 243.327 448.62 244.278 451.938C245.229 455.257 248.69 457.176 252.009 456.225Z" fill="#3BB6E8"/>
<path d="M250.36 528.413C253.679 527.462 255.598 524.001 254.647 520.682C253.696 517.363 250.234 515.444 246.916 516.395C243.597 517.346 241.678 520.808 242.629 524.126C243.58 527.445 247.041 529.364 250.36 528.413Z" fill="#3BB6E8"/>
<path d="M173.84 544.466C177.159 543.515 179.078 540.053 178.127 536.735C177.176 533.416 173.715 531.497 170.396 532.448C167.077 533.399 165.158 536.861 166.109 540.179C167.06 543.498 170.522 545.417 173.84 544.466Z" fill="#3BB6E8"/>
<path d="M94.0892 506.599C97.408 505.648 99.3273 502.186 98.3761 498.868C97.4249 495.549 93.9634 493.63 90.6447 494.581C87.3259 495.532 85.4066 498.993 86.3578 502.312C87.309 505.631 90.7704 507.55 94.0892 506.599Z" fill="#3BB6E8"/>
<path d="M435.138 389.631C438.457 388.68 440.376 385.219 439.425 381.9C438.474 378.581 435.012 376.662 431.694 377.613C428.375 378.564 426.456 382.026 427.407 385.344C428.358 388.663 431.819 390.582 435.138 389.631Z" fill="#3BB6E8"/>
<path fill-rule="evenodd" clip-rule="evenodd" d="M369.398 22.9264L370.596 21.0951L368.545 22.1676L368.287 21.9384L367.925 22.4916L257.43 80.2622L257.395 80.3187C252.813 83.814 160.167 154.763 103.118 222.044L68.087 250.921L67.194 249.396L67.159 251.687L66.938 251.869L67.081 252.114L26.4558 366.493L26.0228 366.927L26.494 367.347L90.954 501.459L90.609 502.542L91.359 502.3L91.883 503.39L92.191 502.425L172.797 540.148L248.692 523.962L248.389 524.803L250.008 523.733L250.548 523.806L250.559 523.368L377.026 439.642L434.328 385.051L434.787 385.712L435.082 384.428L435.529 384.202L435.23 383.77C435.265 383.605 435.314 383.374 435.374 383.076C435.512 382.398 435.711 381.373 435.96 379.977C436.457 377.184 437.151 372.909 437.94 366.966C439.473 355.433 441.365 337.619 442.88 312.169L442.883 312.174L443.011 309.94L443.113 309.712L443.031 309.577C444.508 283.584 445.583 249.913 445.52 207.196L445.729 207.219L445.551 206.433L445.817 205.749L445.385 205.702L419.912 93.1316L419.844 93.0722L398.209 48.8399L398.34 48.6589L397.952 48.3135L397.477 47.3432L397.236 47.6769L369.398 22.9264ZM386.871 66.2854L418.584 93.9248L443.839 205.531L399.786 200.671L386.871 66.2854ZM384.973 64.631L385.204 64.3121L385.054 62.7504L385.838 63.4342L396.369 48.8744L368.584 24.1708L345.045 60.155L330.38 238.105L398.242 200.973L398.102 200.485L398.292 200.506L385.258 64.8795L384.973 64.631ZM400.12 202.188L419.404 269.471L443.751 207.001L400.12 202.188ZM419.062 273.618L378.408 342.674L418.633 360.715L441.456 309.814L419.441 273.427L419.191 274.068L419.062 273.618ZM377.085 344.173L377.278 344.592L377.657 343.949L417.796 361.951L371.708 414.651L291.02 413.555L377.085 344.173ZM376.293 342.457L329.197 240.429L328.69 240.707L328.721 240.33L187.826 270.095L282.721 359.599L283.227 359.276L283.273 359.662L376.293 342.457ZM397.233 50.1909L416.99 90.5842L386.952 64.4047L397.233 50.1909ZM343.357 62.7362L328.847 238.8L188.559 268.437L247.609 209.095L343.357 62.7362ZM111.21 438.827L185.05 270.682L184.067 270.889L184.069 270.887L90.887 290.49L111.21 438.827ZM210.539 158.405L187.538 267.355L247.976 205.827L366.274 25.0143L258.467 81.3794L210.539 158.405ZM398.657 202.423L330.491 239.722L377.436 341.425L418.503 271.668L398.657 202.423ZM283.446 361.126L374.633 344.26L289.545 412.855L283.446 361.126ZM187.915 272.201L281.444 360.416L228.434 394.34L187.915 272.201ZM185.679 269.045L91.056 288.917L103.11 234.632L208.744 159.787L185.679 269.045ZM419.976 361.317L441.313 313.728C439.817 338.27 437.976 355.528 436.482 366.772C435.695 372.695 435.005 376.949 434.512 379.719C434.338 380.693 434.189 381.483 434.069 382.098L419.935 361.739L420.212 361.423L419.976 361.317ZM287.746 414.306L286.582 413.495L288.142 413.516L282.042 361.781L228.957 395.752L251.831 448.656L287.159 414.974L286.921 414.97L287.746 414.306ZM291.36 415.031L338.463 447.842L370.283 416.103L291.36 415.031ZM372.338 416.131L339.689 448.697L339.718 448.717L339.07 449.315L339.067 449.318L339.057 449.328L338.632 449.752L338.612 449.738L286.579 497.768L376.105 438.487L430.341 386.818L372.497 415.983L372.368 416.131H372.338ZM433.356 383.651L418.938 362.88L375.074 413.037L433.356 383.651ZM289.337 415.415L337.376 448.878L278.906 502.848L251.275 521.13L289.337 415.415ZM444.052 210.277C444.06 250.356 443.061 282.324 441.683 307.348L420.114 271.699L444.052 210.277ZM287.223 416.945L250.676 518.454L252.291 450.696L252.724 450.722L252.453 450.095L287.223 416.945ZM255.175 83.8833L209.314 157.541L101.797 233.759L89.754 287.924L68.84 252.207L104.155 223.096L104.198 223.046C156.178 161.724 237.871 97.2885 255.175 83.8833ZM89.099 290.866L89.282 290.045L68.584 254.682L67.482 327.043L109.249 435.352L89.439 290.795L89.099 290.866ZM227.702 396.555L250.425 449.111L114.209 440.975L227.58 396.438L227.634 396.599L227.702 396.555ZM186.203 271.713L112.226 440.174L227.116 395.04L186.203 271.713ZM109.445 442.846L109.947 441.703L29.3484 369.89L91.605 499.418L109.666 442.76L109.445 442.846ZM111.363 442.278L92.879 500.266L247.622 450.417L111.363 442.278ZM109.056 438.94L66.466 328.495L28.1636 366.865L109.056 438.94ZM66.014 326.866L67.085 256.498L28.8787 364.066L66.014 326.866ZM95.048 501.112L249.117 522.127L250.815 450.934L95.048 501.112ZM245.559 523.126L96.431 502.785L172.974 538.606L245.559 523.126Z" fill="#3BB6E8"/>
</g>
<defs>
<filter id="filter0_d" x="0.295654" y="0.0958862" width="472.66" height="570.093" filterUnits="userSpaceOnUse" color-interpolation-filters="sRGB">
<feFlood flood-opacity="0" result="BackgroundImageFix"/>
<feColorMatrix in="SourceAlpha" type="matrix" values="0 0 0 0 0 0 0 0 0 0 0 0 0 0 0 0 0 0 127 0"/>
<feOffset dy="4"/>
<feGaussianBlur stdDeviation="10"/>
<feColorMatrix type="matrix" values="0 0 0 0 0.231373 0 0 0 0 0.713726 0 0 0 0 0.909804 0 0 0 1 0"/>
<feBlend mode="normal" in2="BackgroundImageFix" result="effect1_dropShadow"/>
<feBlend mode="normal" in="SourceGraphic" in2="effect1_dropShadow" result="shape"/>
</filter>
</defs>
</svg>
