<svg width="1600" height="1686" viewBox="0 0 1600 1686" fill="none" xmlns="http://www.w3.org/2000/svg">
<path fill-rule="evenodd" clip-rule="evenodd" d="M67.8864 1054.1L62.0445 1054.88L67.8373 1057.18L67.8225 1058.11L69.587 1057.87L381.616 1181.89L381.794 1181.87C396.977 1185.08 704.54 1249.52 942.076 1247.76L1062.55 1268.53L1061.01 1273.03L1065.75 1269.08L1066.51 1269.21L1066.76 1268.48L1371.55 1150.47L1373.2 1150.59L1373.23 1148.89L1533.66 781.754L1536.48 780.556L1534.67 779.45L1535.97 776.466L1533.46 777.534L1468.82 546.763L1302.45 420.306L1304.7 419.446L1299.67 418.024L1298.87 416.791L1297.96 417.54L904.896 306.517L692.815 285.469L693.357 283.371L690.218 285.025L688.97 284.508L688.616 285.879C688.215 286.097 687.659 286.403 686.946 286.803C685.321 287.713 682.877 289.107 679.591 291.053C673.019 294.943 663.075 301.037 649.559 309.865C623.332 326.997 583.652 354.428 529.053 396.043L529.058 396.027L524.275 399.692L523.631 399.884L523.499 400.287C467.858 442.934 397.256 499.889 310.192 575.054L309.873 574.588L308.58 576.334L306.718 576.99L307.379 577.955L122.407 827.686L122.405 827.93L70.1491 949.783L69.5496 949.834L69.5272 951.233L68.3809 953.907L69.4861 953.813L67.8864 1054.1ZM125.672 942.278L126.36 829.004L309.748 581.411L377.229 679.854L125.672 942.278ZM125.631 949.057L124.575 949.147L121.651 952.197L121.668 949.394L73.4528 953.478L71.856 1053.58L186.647 1038.41L575.564 755.741L380.559 682.474L379.809 683.617L379.517 683.191L125.637 948.039L125.631 949.057ZM379.737 676.508L483.166 518.958L312.903 579.009L379.737 676.508ZM492.228 512.371L704.581 474.035L670.724 360.249L526.75 403.087L491.173 511.934L492.919 511.319L492.228 512.371ZM709.965 474.101L710.48 472.969L708.503 473.326L674.719 359.787L863.24 361.269L1002.77 527.866L709.965 474.101ZM707.855 478.731L582.385 754.073L583.843 754.621L583.019 755.219L891.308 990.478L907.238 639.583L905.688 639.12L906.397 638.348L707.855 478.731ZM74.6219 949.403L122.343 838.126L121.692 945.416L74.6219 949.403ZM194.882 1037.32L579.675 757.65L886.635 991.894L661.786 975.625L194.882 1037.32ZM1370.26 850.437L897.383 995.113L899.534 996.754L899.525 996.754L1103.25 1152.49L1370.26 850.437ZM623.472 1140.32L886.222 995.878L654.473 980.617L77.6353 1056.81L382.074 1177.81L623.472 1140.32ZM382.787 679.08L578.669 752.676L703.739 478.212L489.231 516.937L382.787 679.08ZM909.081 635.424L714.452 478.952L1003.93 532.106L909.081 635.424ZM895.449 986.597L911.149 640.755L1073.52 689.348L895.449 986.597ZM892.939 996.704L1099.74 1154.91L967.777 1225.66L629.445 1141.56L892.939 996.704ZM669.595 356.451L534.988 396.504C587.701 356.444 626.155 329.884 651.726 313.181C665.196 304.383 675.09 298.32 681.609 294.461C683.901 293.104 685.776 292.019 687.243 291.184L670.527 355.793L669.396 355.784L669.595 356.451ZM1010.05 533.23L1010.44 537.03L1007.74 533.808L912.883 637.139L1075.48 685.8L1143.25 546.186L1012.45 533.254L1012.86 533.745L1010.05 533.23ZM1005.18 524.581L989.384 370.812L868.706 361.627L1005.18 524.581ZM865.153 357.385L988.973 366.809L988.963 366.714L991.324 366.987L991.334 366.989L991.372 366.992L992.985 367.114L992.992 367.178L1182.43 388.999L904.157 310.424L703.424 290.502L864.571 357.319L865.101 357.323L865.153 357.385ZM691.663 289.912L674.609 355.824L854.03 357.235L691.663 289.912ZM1009.52 528.034L993.407 371.213L1206.28 395.733L1292.13 420.008L1009.52 528.034ZM319.059 572.638C400.837 502.219 467.83 448.101 521.319 406.954L486.463 513.596L319.059 572.638ZM1016.36 529.661L1287.72 425.934L1146.61 541.662L1145.9 540.734L1145.1 542.388L1016.36 529.661ZM392.968 1180.14L623.861 1144.34L968.304 1229.88L1100 1159.31L1063.86 1264.73L942.4 1243.8L942.223 1243.8C725.755 1245.43 450.728 1191.9 392.968 1180.14ZM1107.15 1155.48L1105.16 1156.55L1069.36 1260.91L1218.96 1136.04L1366.61 860.544L1106.41 1154.91L1107.15 1155.48ZM1079.32 686.952L1146.65 548.255L1369.37 840.543L1079.3 687.406L1079.53 687.014L1079.32 686.952ZM897.462 990.946L1371.22 845.999L1077.26 690.809L897.462 990.946ZM1381.56 846.979L1378.35 847.962L1373.4 1138.6L1528.35 784.011L1381 846.681L1381.56 846.979ZM1377.03 844.063L1527.85 779.923L1154.24 551.681L1377.03 844.063ZM1374.27 854.635L1223.71 1135.57L1369.31 1146.33L1374.27 854.635ZM1221.18 1139.35L1075.69 1260.78L1362.34 1149.79L1221.18 1139.35ZM1525.76 774.009L1297.96 422.662L1149.69 544.258L1525.76 774.009ZM1306.25 428.168L1526.75 768.247L1465.37 549.111L1306.25 428.168Z" fill="#101010"/>
</svg>
