<svg width="1106" height="1046" viewBox="0 0 1106 1046" fill="none" xmlns="http://www.w3.org/2000/svg">
<path fill-rule="evenodd" clip-rule="evenodd" d="M1040.14 42.6899L1044.13 39.8785L1039 40.4179L1038.65 39.7315L1037.45 40.5808L761.084 69.6318L760.965 69.7201C748.603 73.2033 498.416 144.202 325.002 236.804L228.721 267.897L228.121 264.002L226.169 268.721L225.562 268.917L225.658 269.544L47.6371 473.201L46.384 473.745L47.016 475.001L70.5644 805.751L68.9603 807.712L70.7122 807.827L70.9036 810.515L72.3336 808.767L208.418 953.052L378.966 981.777L377.647 983.273L381.879 982.382L382.939 982.978L383.32 982.078L714.073 912.352L877.599 846.252L878.008 847.998L879.673 845.579L880.786 845.478L880.519 844.337C880.729 844.023 881.018 843.585 881.388 843.018C882.229 841.726 883.484 839.765 885.144 837.076C888.466 831.699 893.411 823.41 899.923 811.744C912.559 789.106 931.096 753.749 955.115 702.26L955.117 702.274L957.214 697.749L957.613 697.361L957.554 697.015C981.939 644.37 1011.79 575.487 1046.71 486.931L1047.12 487.15L1047.39 485.374L1048.51 484.176L1047.65 483.723L1087.22 229.59L1087.13 229.411L1078.58 120.017L1079 119.749L1078.48 118.715L1078.3 116.315L1077.52 116.808L1040.14 42.6899ZM1040.78 146.861L1083.82 230.143L1044.59 482.101L957.288 435.892L1040.78 146.861ZM1038.2 141.876L1038.94 141.405L1039.91 138.045L1040.98 140.106L1074.74 118.578L1037.43 44.6008L959.135 99.8469L782.756 456.516L953.841 435.252L953.951 434.126L954.329 434.326L1038.59 142.625L1038.2 141.876ZM956.736 439.309L941.496 594.536L1043.2 485.075L956.736 439.309ZM937.387 602.848L796.49 712.574L865.044 782.954L954.095 696.213L938.328 602.762L937.285 603.885L937.387 602.848ZM792.518 714.595L792.575 715.623L793.888 714.601L862.293 784.828L723.556 856.21L557.255 787.746L792.518 714.595ZM792.285 710.391L778.398 460.361L777.12 460.52L777.493 459.764L461.112 405.851L584.324 669.146L585.638 668.89L585.415 669.729L792.285 710.391ZM1075.45 122.015L1083.25 221.914L1042.49 143.031L1075.45 122.015ZM953.519 103.81L779.01 456.697L463.992 403.017L635.039 328.506L953.519 103.81ZM163.922 692.599L454.877 404.789L452.67 404.413L452.677 404.41L243.504 368.584L163.922 692.599ZM599.808 193.071L462.764 399.938L638.479 322.037L1031.96 44.4536L762.318 72.7979L599.808 193.071ZM953.512 438.596L781.659 459.956L795.501 709.19L937.828 598.349L953.512 438.596ZM584.572 672.903L787.365 712.765L554.773 785.086L584.572 672.903ZM459.569 410.287L581.006 669.791L443.328 696.592L459.569 410.287ZM457.523 401.915L245.144 365.464L314.66 262.877L594.955 194.461L457.523 401.915ZM867.331 785.303L950.588 704.204C927.354 753.827 909.381 788.076 897.061 810.147C890.571 821.773 885.65 830.02 882.355 835.354C881.197 837.23 880.24 838.745 879.486 839.921L866.901 786.144L867.733 785.715L867.331 785.303ZM549.854 786.615L548.107 783.98L551.323 785.305L581.126 673.108L443.255 699.946L447.25 828.324L548.091 787.518L547.6 787.316L549.854 786.615ZM556.748 791.082L627.436 897.707L719.412 858.049L556.748 791.082ZM723.647 859.792L629.276 900.483L629.32 900.549L627.484 901.256L627.477 901.259L627.448 901.272L626.218 901.802L626.189 901.757L478.963 958.586L713.113 909.204L867.889 846.642L724.099 859.617L723.709 859.818L723.647 859.792ZM876.735 842.553L863.897 787.69L731.856 855.627L876.735 842.553ZM552.242 790.219L624.334 898.96L458.896 962.818L386.64 978.03L552.242 790.219ZM1041.14 492.11C1008.27 575.156 979.974 640.572 956.589 691.291L941.141 599.734L1041.14 492.11ZM546.606 791.655L387.594 971.992L446.531 832.929L447.406 833.337L447.358 831.816L546.606 791.655ZM753.441 75.285L597.978 190.277L312.655 259.993L243.261 362.337L229.226 271.178L326.289 239.833L326.418 239.764C484.439 155.353 706.585 88.8636 753.441 75.285ZM239.491 367.897L240.543 366.345L226.665 276.096L165.017 425.119L162.709 683.79L240.253 368.027L239.491 367.897ZM439.994 700.58L443.963 828.114L168.373 699.51L439.838 700.238L439.817 700.615L439.994 700.58ZM456.422 407.874L164.921 696.223L440.024 696.96L456.422 407.874ZM156.967 699.479L158.944 697.523L50.8443 482.612L73.5877 802.056L157.494 699.481L156.967 699.479ZM161.406 699.876L75.5304 804.858L437.084 828.52L161.406 699.876ZM159.366 691.066L161.719 427.293L50.8714 475.371L159.366 691.066ZM162.12 423.547L222.07 278.628L54.6489 470.16L162.12 423.547ZM79.3306 808.391L381.351 978.324L443.276 832.21L79.3306 808.391ZM373.159 977.475L80.8246 812.992L210.048 950.003L373.159 977.475Z" fill="#101010"/>
</svg>
