<svg width="48" height="36" viewBox="0 0 48 36" fill="none" xmlns="http://www.w3.org/2000/svg">
<path d="M0.000621342 2C0.000621342 0.895431 0.896052 0 2.00062 0H27.6477C28.7523 0 29.6477 0.895431 29.6477 2V2.32001C29.6477 3.42458 28.7523 4.32001 27.6477 4.32001H2.00062C0.896052 4.32001 0.000621342 3.42458 0.000621342 2.32001V2Z" fill="#3BB6E8"/>
<path d="M0 33.6799C0 32.5753 0.89543 31.6799 2 31.6799H46C47.1046 31.6799 48 32.5753 48 33.6799V33.9999C48 35.1045 47.1046 35.9999 46 35.9999H2C0.895433 35.9999 0 35.1044 0 33.9999V33.6799Z" fill="#3BB6E8"/>
<path d="M2 15.8408C0.89543 15.8408 0 16.7363 0 17.8408V18.1608C0 19.2654 0.895433 20.1608 2 20.1608H46C47.1046 20.1608 48 19.2654 48 18.1608V17.8408C48 16.7363 47.1046 15.8408 46 15.8408H2Z" fill="#3BB6E8"/>
</svg>
